<svg width="351" height="332" viewBox="0 0 351 332" fill="none" xmlns="http://www.w3.org/2000/svg">
<circle cx="234" cy="117" r="117" transform="rotate(-90 234 117)" fill="#FD3EF5" fill-opacity="0.7"/>
<circle cx="173" cy="117" r="117" transform="rotate(-90 173 117)" fill="#3E74FD" fill-opacity="0.7"/>
<circle cx="117" cy="174" r="117" transform="rotate(-90 117 174)" fill="#FF3333" fill-opacity="0.7"/>
<circle cx="234" cy="174" r="117" transform="rotate(-90 234 174)" fill="#5CFF33" fill-opacity="0.7"/>
<circle cx="147" cy="283" r="49" transform="rotate(-90 147 283)" fill="#33FFF3" fill-opacity="0.7"/>
<path d="M174.245 216.65C165.115 216.65 154.225 215.77 141.575 214.01V200.645C154.335 203.395 165.555 204.77 175.235 204.77C183.375 204.77 189.315 203.89 193.055 202.13C196.795 200.26 198.665 196.85 198.665 191.9V178.04C198.665 173.42 197.345 170.175 194.705 168.305C192.065 166.435 187.445 165.5 180.845 165.5H168.305C157.855 165.5 150.43 163.41 146.03 159.23C141.63 155.05 139.43 148.56 139.43 139.76V131.18C139.43 125.35 140.695 120.62 143.225 116.99C145.865 113.36 150.21 110.665 156.26 108.905C162.42 107.145 170.835 106.265 181.505 106.265C188.655 106.265 197.84 106.87 209.06 108.08V120.125C196.52 118.255 186.95 117.32 180.35 117.32C170.12 117.32 163.355 118.31 160.055 120.29C156.645 122.38 154.94 125.845 154.94 130.685V142.895C154.94 146.635 156.26 149.385 158.9 151.145C161.65 152.795 166.325 153.62 172.925 153.62H185.795C193.165 153.62 198.885 154.5 202.955 156.26C207.135 158.02 210.05 160.715 211.7 164.345C213.46 167.865 214.34 172.65 214.34 178.7V186.455C214.34 194.045 212.91 200.04 210.05 204.44C207.3 208.84 203.01 211.975 197.18 213.845C191.35 215.715 183.705 216.65 174.245 216.65Z" fill="white"/>
</svg>
